name C:\Users\u0101727\Documents\MyRepositories\upper-imu-dc\Results\main_tracking\Case_44\FLX01_linearAccelerations_bodyFrame.mot
datacolumns 4
datarows 70
range 3.51000000 4.20000000
endheader 
time	radius_imu_x	radius_imu_y	radius_imu_z	
          3.51000000	         -0.37537031	         -9.44755046	          2.46488252	
          3.52000000	         -0.38918320	         -9.44707357	          2.46407200	
          3.53000000	         -0.40025663	         -9.44632979	          2.46433536	
          3.54000000	         -0.40843297	         -9.44532534	          2.46570220	
          3.55000000	         -0.41361052	         -9.44407291	          2.46812519	
          3.56000000	         -0.41573420	         -9.44259132	          2.47147712	
          3.57000000	         -0.41478394	         -9.44090394	          2.47555712	
          3.58000000	         -0.41076435	         -9.43903499	          2.48010676	
          3.59000000	         -0.40369882	         -9.43700381	          2.48483392	
          3.60000000	         -0.39362734	         -9.43481974	          2.48944159	
          3.61000000	         -0.38060377	         -9.43247992	          2.49365676	
          3.62000000	         -0.36469309	         -9.42996989	          2.49725251	
          3.63000000	         -0.34597305	         -9.42726482	          2.50006075	
          3.64000000	         -0.32453576	         -9.42433082	          2.50197580	
          3.65000000	         -0.30049052	         -9.42112722	          2.50295441	
          3.66000000	         -0.27396929	         -9.41760910	          2.50301618	
          3.67000000	         -0.24512745	         -9.41372985	          2.50223451	
          3.68000000	         -0.21415331	         -9.40944225	          2.50072175	
          3.69000000	         -0.18128288	         -9.40469871	          2.49861142	
          3.70000000	         -0.14680548	         -9.39945233	          2.49603986	
          3.71000000	         -0.11106838	         -9.39365859	          2.49314238	
          3.72000000	         -0.07446842	         -9.38727802	          2.49005763	
          3.73000000	         -0.03743790	         -9.38027693	          2.48693583	
          3.74000000	         -0.00043547	         -9.37262481	          2.48394380	
          3.75000000	          0.03606391	         -9.36429047	          2.48126207	
          3.76000000	          0.07157980	         -9.35523836	          2.47907883	
          3.77000000	          0.10563439	         -9.34542529	          2.47758275	
          3.78000000	          0.13775721	         -9.33479803	          2.47695342	
          3.79000000	          0.16748816	         -9.32329314	          2.47735235	
          3.80000000	          0.19438292	         -9.31084117	          2.47891988	
          3.81000000	          0.21802287	         -9.29737479	          2.48177779	
          3.82000000	          0.23802538	         -9.28283731	          2.48603090	
          3.83000000	          0.25404971	         -9.26718807	          2.49176056	
          3.84000000	          0.26579551	         -9.25040351	          2.49901084	
          3.85000000	          0.27299808	         -9.23247535	          2.50777446	
          3.86000000	          0.27542904	         -9.21340642	          2.51798561	
          3.87000000	          0.27289527	         -9.19320560	          2.52952173	
          3.88000000	          0.26523352	         -9.17188344	          2.54221037	
          3.89000000	          0.25230440	         -9.14944697	          2.55583849	
          3.90000000	          0.23398530	         -9.12589726	          2.57016609	
          3.91000000	          0.21017694	         -9.10122809	          2.58494315	
          3.92000000	          0.18081172	         -9.07542674	          2.59992594	
          3.93000000	          0.14584839	         -9.04847267	          2.61488929	
          3.94000000	          0.10525688	         -9.02033301	          2.62963389	
          3.95000000	          0.05900276	         -8.99095995	          2.64399408	
          3.96000000	          0.00704360	         -8.96029400	          2.65785081	
          3.97000000	         -0.05066612	         -8.92827102	          2.67114828	
          3.98000000	         -0.11417066	         -8.89482927	          2.68390905	
          3.99000000	         -0.18351122	         -8.85991430	          2.69624410	
          4.00000000	         -0.25872350	         -8.82348158	          2.70835516	
          4.01000000	         -0.33983128	         -8.78549687	          2.72052777	
          4.02000000	         -0.42683576	         -8.74593585	          2.73311463	
          4.03000000	         -0.51970520	         -8.70478316	          2.74651081	
          4.04000000	         -0.61836851	         -8.66203003	          2.76112296	
          4.05000000	         -0.72271109	         -8.61767079	          2.77733821	
          4.06000000	         -0.83256983	         -8.57169948	          2.79549984	
          4.07000000	         -0.94772491	         -8.52410654	          2.81589691	
          4.08000000	         -1.06788758	         -8.47487569	          2.83876761	
          4.09000000	         -1.19268475	         -8.42398164	          2.86430804	
          4.10000000	         -1.32164400	         -8.37138930	          2.89267388	
          4.11000000	         -1.45418547	         -8.31705474	          2.92396806	
          4.12000000	         -1.58962541	         -8.26092766	          2.95822070	
          4.13000000	         -1.72719097	         -8.20295647	          2.99537580	
          4.14000000	         -1.86604297	         -8.14309537	          3.03529373	
          4.15000000	         -2.00530452	         -8.08130987	          3.07776875	
          4.16000000	         -2.14409263	         -8.01757704	          3.12255431	
          4.17000000	         -2.28154942	         -7.95188030	          3.16938881	
          4.18000000	         -2.41686760	         -7.88420133	          3.21801858	
          4.19000000	         -2.54930637	         -7.81451375	          3.26822181	
          4.20000000	         -2.67820074	         -7.74277917	          3.31983778	
